{
  "accessors": [
    {
      "bufferView": 2,
      "componentType": 5126,
      "count": 721,
      "max": [
        0.8608999848365784,
        0.8608999848365784,
        1.6802599430084229
      ],
      "min": [
        -0.8608999848365784,
        -0.8608999848365784,
        -0.009349999949336052
      ],
      "type": "VEC3"
    },
    {
      "bufferView": 2,
      "byteOffset": 8652,
      "componentType": 5126,
      "count": 721,
      "max": [
        0.9992345571517944,
        0.9992345571517944,
        0.9985533356666565
      ],
      "min": [
        -0.9992345571517944,
        -0.9992345571517944,
        -0.9921839237213135
      ],
      "type": "VEC3"
    },
    {
      "bufferView": 3,
      "componentType": 5126,
      "count": 721,
      "max": [
        0.9246634244918823,
        0.9659333825111389,
        0.9988779425621033,
        1.0
      ],
      "min": [
        -0.9246633648872375,
        -0.9246634244918823,
        -0.9992357492446899,
        1.0
      ],
      "type": "VEC4"
    },
    {
      "bufferView": 1,
      "componentType": 5126,
      "count": 721,
      "max": [
        0.99795001745224,
        0.9819999933242798
      ],
      "min": [
        0.4605900049209595,
        0.6014099717140198
      ],
      "type": "VEC2"
    },
    {
      "bufferView": 1,
      "byteOffset": 5768,
      "componentType": 5126,
      "count": 721,
      "max": [
        0.99795001745224,
        0.9819999933242798
      ],
      "min": [
        0.4605900049209595,
        0.6014099717140198
      ],
      "type": "VEC2"
    },
    {
      "bufferView": 0,
      "componentType": 5125,
      "count": 3744,
      "type": "SCALAR"
    },
    {
      "bufferView": 2,
      "byteOffset": 17304,
      "componentType": 5126,
      "count": 90,
      "max": [
        0.40474000573158264,
        0.40474000573158264,
        0.037620000541210175
      ],
      "min": [
        -0.40474000573158264,
        -0.40474000573158264,
        -0.009349999949336052
      ],
      "type": "VEC3"
    },
    {
      "bufferView": 2,
      "byteOffset": 18384,
      "componentType": 5126,
      "count": 90,
      "max": [
        0.0005200155428610742,
        0.0003100092872045934,
        1.0
      ],
      "min": [
        -0.0005200155428610742,
        -0.0003100092872045934,
        -1.0
      ],
      "type": "VEC3"
    },
    {
      "bufferView": 1,
      "byteOffset": 11536,
      "componentType": 5126,
      "count": 90,
      "max": [
        0.9860399961471558,
        0.9698600172996521
      ],
      "min": [
        0.7859500050544739,
        0.8843100070953369
      ],
      "type": "VEC2"
    },
    {
      "bufferView": 1,
      "byteOffset": 12256,
      "componentType": 5126,
      "count": 90,
      "max": [
        0.0,
        0.0
      ],
      "min": [
        0.0,
        0.0
      ],
      "type": "VEC2"
    },
    {
      "bufferView": 0,
      "byteOffset": 14976,
      "componentType": 5125,
      "count": 384,
      "type": "SCALAR"
    },
    {
      "bufferView": 2,
      "byteOffset": 19464,
      "componentType": 5126,
      "count": 38430,
      "max": [
        1.1328799724578857,
        1.2138899564743042,
        6.88539981842041
      ],
      "min": [
        -1.0149400234222412,
        -1.328320026397705,
        1.7036999464035034
      ],
      "type": "VEC3"
    },
    {
      "bufferView": 2,
      "byteOffset": 480624,
      "componentType": 5126,
      "count": 38430,
      "max": [
        0.9994173049926758,
        0.999748945236206,
        0.9812268614768982
      ],
      "min": [
        -0.999879777431488,
        -0.999771773815155,
        -0.9847820997238159
      ],
      "type": "VEC3"
    },
    {
      "bufferView": 3,
      "byteOffset": 11536,
      "componentType": 5126,
      "count": 38430,
      "max": [
        0.999990701675415,
        0.9999971985816956,
        0.9895143508911133,
        1.0
      ],
      "min": [
        -0.9999783635139465,
        -0.9999994039535522,
        -0.9540948867797852,
        1.0
      ],
      "type": "VEC4"
    },
    {
      "bufferView": 1,
      "byteOffset": 12976,
      "componentType": 5126,
      "count": 38430,
      "max": [
        0.9952700138092041,
        0.853630006313324
      ],
      "min": [
        0.7715799808502197,
        0.40580999851226807
      ],
      "type": "VEC2"
    },
    {
      "bufferView": 1,
      "byteOffset": 320416,
      "componentType": 5126,
      "count": 38430,
      "max": [
        0.9952700138092041,
        0.853630006313324
      ],
      "min": [
        0.7715799808502197,
        0.40580999851226807
      ],
      "type": "VEC2"
    },
    {
      "bufferView": 0,
      "byteOffset": 16512,
      "componentType": 5125,
      "count": 180072,
      "type": "SCALAR"
    },
    {
      "bufferView": 2,
      "byteOffset": 941784,
      "componentType": 5126,
      "count": 880,
      "max": [
        0.866890013217926,
        1.0738099813461304,
        6.833320140838623
      ],
      "min": [
        -0.8960099816322327,
        -0.9164400100708008,
        1.4203200340270996
      ],
      "type": "VEC3"
    },
    {
      "bufferView": 2,
      "byteOffset": 952344,
      "componentType": 5126,
      "count": 880,
      "max": [
        0.9972668886184692,
        0.9996311068534851,
        0.9905595183372498
      ],
      "min": [
        -0.9996514320373535,
        -0.9987735748291016,
        -0.9923434853553772
      ],
      "type": "VEC3"
    },
    {
      "bufferView": 3,
      "byteOffset": 626416,
      "componentType": 5126,
      "count": 880,
      "max": [
        0.9987097382545471,
        0.9999568462371826,
        0.9077947735786438,
        1.0
      ],
      "min": [
        -0.9996477961540222,
        -0.9994190335273743,
        -0.9440733790397644,
        1.0
      ],
      "type": "VEC4"
    },
    {
      "bufferView": 1,
      "byteOffset": 627856,
      "componentType": 5126,
      "count": 880,
      "max": [
        0.44492000341415405,
        0.9998300075531006
      ],
      "min": [
        0.00016999999934341758,
        0.002469999948516488
      ],
      "type": "VEC2"
    },
    {
      "bufferView": 1,
      "byteOffset": 634896,
      "componentType": 5126,
      "count": 880,
      "max": [
        0.44492000341415405,
        0.9998300075531006
      ],
      "min": [
        0.00016999999934341758,
        0.002469999948516488
      ],
      "type": "VEC2"
    },
    {
      "bufferView": 0,
      "byteOffset": 736800,
      "componentType": 5125,
      "count": 4416,
      "type": "SCALAR"
    },
    {
      "bufferView": 2,
      "byteOffset": 962904,
      "componentType": 5126,
      "count": 97,
      "max": [
        0.7437800168991089,
        0.7508000135421753,
        1.5772299766540527
      ],
      "min": [
        -0.7437800168991089,
        -0.7508000135421753,
        1.5772299766540527
      ],
      "type": "VEC3"
    },
    {
      "bufferView": 2,
      "byteOffset": 964068,
      "componentType": 5126,
      "count": 97,
      "max": [
        0.0,
        0.0,
        1.0
      ],
      "min": [
        0.0,
        0.0,
        1.0
      ],
      "type": "VEC3"
    },
    {
      "bufferView": 3,
      "byteOffset": 640496,
      "componentType": 5126,
      "count": 97,
      "max": [
        -0.408433198928833,
        0.9127882122993469,
        0.0,
        -1.0
      ],
      "min": [
        -0.4101984202861786,
        0.9119963049888611,
        0.0,
        -1.0
      ],
      "type": "VEC4"
    },
    {
      "bufferView": 1,
      "byteOffset": 641936,
      "componentType": 5126,
      "count": 97,
      "max": [
        0.2156600058078766,
        0.9954699873924255
      ],
      "min": [
        0.0843299999833107,
        0.8649899959564209
      ],
      "type": "VEC2"
    },
    {
      "bufferView": 1,
      "byteOffset": 642712,
      "componentType": 5126,
      "count": 97,
      "max": [
        0.2156600058078766,
        0.9954699873924255
      ],
      "min": [
        0.0843299999833107,
        0.8649899959564209
      ],
      "type": "VEC2"
    },
    {
      "bufferView": 0,
      "byteOffset": 754464,
      "componentType": 5125,
      "count": 528,
      "type": "SCALAR"
    },
    {
      "bufferView": 2,
      "byteOffset": 965232,
      "componentType": 5126,
      "count": 1503,
      "max": [
        0.8043400049209595,
        0.811680018901825,
        1.7140699625015259
      ],
      "min": [
        -0.8043400049209595,
        -0.811680018901825,
        0.178289994597435
      ],
      "type": "VEC3"
    },
    {
      "bufferView": 2,
      "byteOffset": 983268,
      "componentType": 5126,
      "count": 1503,
      "max": [
        1.0,
        1.0,
        1.0
      ],
      "min": [
        -1.0,
        -1.0,
        -1.0
      ],
      "type": "VEC3"
    },
    {
      "bufferView": 3,
      "byteOffset": 642048,
      "componentType": 5126,
      "count": 1503,
      "max": [
        1.0,
        1.0,
        0.9999238848686218,
        1.0
      ],
      "min": [
        -1.0,
        -1.0,
        -0.999966025352478,
        1.0
      ],
      "type": "VEC4"
    },
    {
      "bufferView": 1,
      "byteOffset": 643488,
      "componentType": 5126,
      "count": 1503,
      "max": [
        0.9678300023078918,
        0.5642200112342834
      ],
      "min": [
        0.45486000180244446,
        0.021080000326037407
      ],
      "type": "VEC2"
    },
    {
      "bufferView": 1,
      "byteOffset": 655512,
      "componentType": 5126,
      "count": 1503,
      "max": [
        0.9678300023078918,
        0.5642200112342834
      ],
      "min": [
        0.45486000180244446,
        0.021080000326037407
      ],
      "type": "VEC2"
    },
    {
      "bufferView": 0,
      "byteOffset": 756576,
      "componentType": 5125,
      "count": 6624,
      "type": "SCALAR"
    }
  ],
  "asset": {
    "extras": {
      "author": "3DHaupt (https://sketchfab.com/dennish2010)",
      "license": "CC-BY-NC-4.0 (http://creativecommons.org/licenses/by-nc/4.0/)",
      "source": "https://sketchfab.com/3d-models/indoor-plant-bpaOec5a2WUaiKuF0ATci1cjCK7",
      "title": "Indoor Plant"
    },
    "generator": "Sketchfab-12.64.0",
    "version": "2.0"
  },
  "bufferViews": [
    {
      "buffer": 0,
      "byteLength": 783072,
      "name": "floatBufferViews",
      "target": 34963
    },
    {
      "buffer": 0,
      "byteLength": 667536,
      "byteOffset": 783072,
      "byteStride": 8,
      "name": "floatBufferViews",
      "target": 34962
    },
    {
      "buffer": 0,
      "byteLength": 1001304,
      "byteOffset": 1450608,
      "byteStride": 12,
      "name": "floatBufferViews",
      "target": 34962
    },
    {
      "buffer": 0,
      "byteLength": 666096,
      "byteOffset": 2451912,
      "byteStride": 16,
      "name": "floatBufferViews",
      "target": 34962
    }
  ],
  "buffers": [
    {
      "byteLength": 3118008,
      "uri": "scene.bin"
    }
  ],
  "images": [
    {
      "uri": "textures/Indoor_Plant_pot_baseColor.jpeg"
    },
    {
      "uri": "textures/Indoor_Plant_pot_normal.png"
    }
  ],
  "materials": [
    {
      "doubleSided": true,
      "name": "Indoor_Plant_pot",
      "normalTexture": {
        "index": 1,
        "scale": 0.4499999881
      },
      "pbrMetallicRoughness": {
        "baseColorTexture": {
          "index": 0
        },
        "metallicFactor": 0.7955208778,
        "roughnessFactor": 0.6
      }
    },
    {
      "doubleSided": true,
      "name": "Indoor_Plant_pot_2",
      "pbrMetallicRoughness": {
        "baseColorFactor": [
          0.3371636868,
          0.2622507215,
          0.1844750345,
          1.0
        ],
        "metallicFactor": 0.0,
        "roughnessFactor": 0.6
      }
    },
    {
      "doubleSided": true,
      "name": "Material.005",
      "normalTexture": {
        "index": 1
      },
      "pbrMetallicRoughness": {
        "baseColorTexture": {
          "index": 0
        },
        "roughnessFactor": 0.6580208778
      }
    },
    {
      "doubleSided": true,
      "name": "Indoor_Plant",
      "normalTexture": {
        "index": 1,
        "scale": 0.6240606308
      },
      "pbrMetallicRoughness": {
        "baseColorTexture": {
          "index": 0
        },
        "metallicFactor": 0.8080208778,
        "roughnessFactor": 0.6142708778
      }
    },
    {
      "doubleSided": true,
      "name": "Indoor_Plant_ground",
      "normalTexture": {
        "index": 1
      },
      "pbrMetallicRoughness": {
        "baseColorTexture": {
          "index": 0
        },
        "metallicFactor": 0.4517708778,
        "roughnessFactor": 0.8080208778
      }
    },
    {
      "doubleSided": true,
      "name": "Material.002",
      "normalTexture": {
        "index": 1
      },
      "pbrMetallicRoughness": {
        "baseColorTexture": {
          "index": 0
        },
        "roughnessFactor": 0.5517708778
      }
    }
  ],
  "meshes": [
    {
      "name": "Circle_0",
      "primitives": [
        {
          "attributes": {
            "NORMAL": 1,
            "POSITION": 0,
            "TANGENT": 2,
            "TEXCOORD_0": 3,
            "TEXCOORD_1": 4
          },
          "indices": 5,
          "material": 0,
          "mode": 4
        }
      ]
    },
    {
      "name": "Circle_1",
      "primitives": [
        {
          "attributes": {
            "NORMAL": 7,
            "POSITION": 6,
            "TEXCOORD_0": 8,
            "TEXCOORD_1": 9
          },
          "indices": 10,
          "material": 1,
          "mode": 4
        }
      ]
    },
    {
      "name": "Circle_2",
      "primitives": [
        {
          "attributes": {
            "NORMAL": 12,
            "POSITION": 11,
            "TANGENT": 13,
            "TEXCOORD_0": 14,
            "TEXCOORD_1": 15
          },
          "indices": 16,
          "material": 2,
          "mode": 4
        }
      ]
    },
    {
      "name": "Circle_3",
      "primitives": [
        {
          "attributes": {
            "NORMAL": 18,
            "POSITION": 17,
            "TANGENT": 19,
            "TEXCOORD_0": 20,
            "TEXCOORD_1": 21
          },
          "indices": 22,
          "material": 3,
          "mode": 4
        }
      ]
    },
    {
      "name": "Circle_4",
      "primitives": [
        {
          "attributes": {
            "NORMAL": 24,
            "POSITION": 23,
            "TANGENT": 25,
            "TEXCOORD_0": 26,
            "TEXCOORD_1": 27
          },
          "indices": 28,
          "material": 4,
          "mode": 4
        }
      ]
    },
    {
      "name": "Circle_5",
      "primitives": [
        {
          "attributes": {
            "NORMAL": 30,
            "POSITION": 29,
            "TANGENT": 31,
            "TEXCOORD_0": 32,
            "TEXCOORD_1": 33
          },
          "indices": 34,
          "material": 5,
          "mode": 4
        }
      ]
    }
  ],
  "nodes": [
    {
      "children": [
        1
      ],
      "matrix": [
        1.0,
        0.0,
        0.0,
        0.0,
        0.0,
        2.220446049250313e-16,
        -1.0,
        0.0,
        0.0,
        1.0,
        2.220446049250313e-16,
        0.0,
        0.0,
        0.0,
        0.0,
        1.0
      ],
      "name": "Sketchfab_model"
    },
    {
      "children": [
        2
      ],
      "name": "Root"
    },
    {
      "children": [
        3,
        4,
        5,
        6,
        7,
        8
      ],
      "matrix": [
        1.1028,
        0.0,
        0.0,
        0.0,
        0.0,
        1.1028,
        0.0,
        0.0,
        0.0,
        0.0,
        1.1028,
        0.0,
        0.0,
        0.0,
        0.0,
        1.0
      ],
      "name": "Circle"
    },
    {
      "mesh": 0,
      "name": "Circle_0"
    },
    {
      "mesh": 1,
      "name": "Circle_1"
    },
    {
      "mesh": 2,
      "name": "Circle_2"
    },
    {
      "mesh": 3,
      "name": "Circle_3"
    },
    {
      "mesh": 4,
      "name": "Circle_4"
    },
    {
      "mesh": 5,
      "name": "Circle_5"
    }
  ],
  "samplers": [
    {
      "magFilter": 9729,
      "minFilter": 9987,
      "wrapS": 10497,
      "wrapT": 10497
    }
  ],
  "scene": 0,
  "scenes": [
    {
      "name": "Sketchfab_Scene",
      "nodes": [
        0
      ]
    }
  ],
  "textures": [
    {
      "sampler": 0,
      "source": 0
    },
    {
      "sampler": 0,
      "source": 1
    }
  ]
}
